<?xml version="1.0" encoding="utf-8"?>
<!-- Svg Vector Icons : http://www.onlinewebfonts.com/icon -->
<!DOCTYPE svg PUBLIC "-//W3C//DTD SVG 1.1//EN" "http://www.w3.org/Graphics/SVG/1.1/DTD/svg11.dtd">
<svg version="1.1" xmlns="http://www.w3.org/2000/svg" xmlns:xlink="http://www.w3.org/1999/xlink" x="0px" y="0px" viewBox="0 0 1000 1000" enable-background="new 0 0 1000 1000" xml:space="preserve">
<metadata> Svg Vector Icons : http://www.onlinewebfonts.com/icon </metadata>
<g><path d="M500,10C228.9,10,10,230.9,10,500c0,269.1,220.9,490,490,490s490-220.9,490-490C990,230.9,771.1,10,500,10z M500,973.9C238.9,973.9,28.1,761.1,28.1,502C28.1,243,240.9,30.1,500,30.1S971.9,243,971.9,502C971.9,761.1,761.1,973.9,500,973.9z M435.7,540.2l-98.4-86.4L255,548.2l196.8,172.7L745,359.4l-98.4-80.3L435.7,540.2z M718.9,363.4L447.8,694.8L279.1,546.2l58.2-68.3l98.4,86.4l210.9-259.1L718.9,363.4z"/></g>
</svg>